<svg width="80" height="17" viewBox="0 0 80 17" fill="none" xmlns="http://www.w3.org/2000/svg">
<path d="M76.8328 0H76.9013C77.0095 0.0981252 77.0849 0.228182 77.1169 0.371994C77.574 1.49794 78.0393 2.62057 78.4998 3.74485L79.8859 7.14096C79.9277 7.22907 79.96 7.32149 79.9823 7.41663C80.0215 7.61259 80.0051 7.64747 79.819 7.72552C79.3667 7.91982 78.9128 8.10914 78.4606 8.30012L74.0522 10.1618C72.9638 10.6234 71.8753 11.0834 70.7868 11.5418L66.3654 13.4084L63.322 14.6921C61.8526 15.3132 60.375 15.9326 58.9137 16.5637C58.7709 16.6298 58.6161 16.6648 58.4592 16.6665C58.3023 16.6683 58.1468 16.6366 58.0026 16.5737C55.9998 15.7267 53.9959 14.8792 51.9909 14.0312L48.0022 12.3472C46.3695 11.6597 44.7427 10.9722 43.122 10.2846C42.1424 9.86781 41.1627 9.4543 40.1831 9.03747C40.1233 9.00911 40.0581 8.99442 39.9921 8.99442C39.9261 8.99442 39.8609 9.00911 39.8011 9.03747L35.6376 10.7945C34.6678 11.2041 33.6979 11.6143 32.7281 12.025L28.5467 13.797L25.2535 15.1887C24.1743 15.6437 23.0951 16.0954 22.0191 16.5604C21.8771 16.628 21.7227 16.6643 21.566 16.6669C21.4092 16.6695 21.2537 16.6383 21.1097 16.5753C19.2778 15.8003 17.4464 15.0254 15.6156 14.2504C13.7848 13.4754 11.9479 12.7004 10.1051 11.9254C8.51488 11.2611 6.92461 10.5891 5.33434 9.90933C3.67005 9.2063 2.00577 8.50494 0.341483 7.80523C0.217396 7.75209 0.0720838 7.7222 0.000244141 7.5827V7.54949C0.088411 7.02139 0.343115 6.55308 0.539042 6.06483C0.893342 5.17969 1.2607 4.29786 1.6248 3.40773C2.06563 2.33603 2.50375 1.26268 2.93914 0.187658C2.96739 0.105821 3.02599 0.0384699 3.10241 0L3.13343 0C3.6657 0.0946592 4.13592 0.357048 4.62737 0.562973C6.60786 1.39332 8.58508 2.23529 10.5639 3.06895L14.1559 4.58516C15.9965 5.36015 17.8372 6.13956 19.6778 6.92341C20.2378 7.16089 20.8011 7.39504 21.3611 7.63418C21.4184 7.66124 21.4808 7.67525 21.544 7.67525C21.6071 7.67525 21.6696 7.66124 21.7268 7.63418C22.8349 7.16587 23.9424 6.69756 25.0494 6.22924C26.5613 5.58489 28.083 4.95051 29.5851 4.31779C30.6736 3.85612 31.7621 3.39611 32.8506 2.93776L36.8997 1.21728L39.5512 0.0946592C39.6753 0.0415172 39.8141 0.0514813 39.9382 0H40.0329C40.5652 0.0946592 41.037 0.357048 41.5268 0.562973C43.5073 1.39332 45.4846 2.23529 47.4634 3.06895L51.4505 4.75455C53.204 5.49411 54.9565 6.23533 56.7079 6.97821C57.2238 7.19964 57.7403 7.41829 58.2573 7.63418C58.3146 7.66124 58.377 7.67525 58.4402 7.67525C58.5033 7.67525 58.5657 7.66124 58.623 7.63418L61.9456 6.22924C63.4564 5.58822 64.9672 4.95107 66.4781 4.31779L69.7712 2.92613C71.1057 2.3615 72.4397 1.79686 73.773 1.23223C74.6536 0.853594 75.5331 0.479385 76.4115 0.109605C76.5503 0.053142 76.6973 0.04816 76.8328 0Z" fill="#FF445F"/>
</svg>
