<svg width="16" height="17" viewBox="0 0 16 17" fill="none" xmlns="http://www.w3.org/2000/svg">
<path d="M15 8.5C15 6.64348 14.2625 4.86301 12.9497 3.55025C11.637 2.2375 9.85652 1.5 8 1.5C6.14348 1.5 4.36301 2.2375 3.05025 3.55025C1.7375 4.86301 1 6.64348 1 8.5C1 10.3565 1.7375 12.137 3.05025 13.4497C4.36301 14.7625 6.14348 15.5 8 15.5C9.85652 15.5 11.637 14.7625 12.9497 13.4497C14.2625 12.137 15 10.3565 15 8.5ZM0 8.5C0 6.37827 0.842855 4.34344 2.34315 2.84315C3.84344 1.34285 5.87827 0.5 8 0.5C10.1217 0.5 12.1566 1.34285 13.6569 2.84315C15.1571 4.34344 16 6.37827 16 8.5C16 10.6217 15.1571 12.6566 13.6569 14.1569C12.1566 15.6571 10.1217 16.5 8 16.5C5.87827 16.5 3.84344 15.6571 2.34315 14.1569C0.842855 12.6566 0 10.6217 0 8.5ZM4 9H4.75625C4.73438 8.84375 4.725 8.68437 4.725 8.525C4.725 8.34687 4.7375 8.17188 4.7625 8H4C3.725 8 3.5 7.775 3.5 7.5C3.5 7.225 3.725 7 4 7H5.06875C5.6375 5.81563 6.84687 5 8.24687 5H9.53125C9.80625 5 10.0312 5.225 10.0312 5.5C10.0312 5.775 9.80625 6 9.53125 6H8.24687C7.425 6 6.69688 6.39375 6.23438 7H9C9.275 7 9.5 7.225 9.5 7.5C9.5 7.775 9.275 8 9 8H5.77812C5.74375 8.16875 5.725 8.34375 5.725 8.525C5.725 8.6875 5.74063 8.84688 5.76875 9H9C9.275 9 9.5 9.225 9.5 9.5C9.5 9.775 9.275 10 9 10H6.2C6.65937 10.6344 7.40312 11.0469 8.24687 11.0469H9.53125C9.80625 11.0469 10.0312 11.2719 10.0312 11.5469C10.0312 11.8219 9.80625 12.0469 9.53125 12.0469H8.24687C6.82812 12.0469 5.60625 11.2094 5.04688 10H4C3.725 10 3.5 9.775 3.5 9.5C3.5 9.225 3.725 9 4 9Z" fill="#FF445F"/>
</svg>
